<svg preserveAspectRatio="none" overflow="visible" style="display: block;" width="21" height="20" viewBox="0 0 21 20" fill="none" xmlns="http://www.w3.org/2000/svg">
<g id="First test link container" clip-path="url(#clip0_0_19)">
<path id="Vector" d="M8.64878 0C8.74231 0.00109836 8.83146 0.0404226 8.89724 0.109049C8.96301 0.177694 8.99978 0.270496 8.99977 0.367025V9.12842C8.9985 9.3581 9.08629 9.5786 9.24271 9.74202C9.39912 9.90543 9.61171 9.99841 9.83428 10H11.1657C11.3883 9.99841 11.6009 9.90543 11.7573 9.74202C11.9137 9.5786 12.0015 9.3581 12.0002 9.12842V0.367025C12.0002 0.270496 12.037 0.177694 12.1028 0.109049C12.1685 0.0404228 12.2577 0.00109856 12.3512 0H14.6489C14.7424 0.00109691 14.8324 0.0404047 14.8981 0.109049C14.9638 0.177668 15.0007 0.270618 15.0007 0.367025V9.12842C14.9994 9.35804 15.0865 9.57861 15.2428 9.74202C15.3993 9.90547 15.6125 9.99846 15.8352 10H20.649C20.7424 10.0012 20.8318 10.0405 20.8975 10.109C20.9631 10.1777 21 10.2706 21 10.367V19.633C21 19.8354 20.8435 19.9998 20.6498 20H15.3509C15.1571 19.9999 15.0007 19.8354 15.0007 19.633V10.8716C15.0006 10.39 14.6265 10 14.1662 10H12.8339C12.6114 10.0016 12.3988 10.0946 12.2424 10.258C12.086 10.4214 11.999 10.6419 12.0002 10.8716V19.633C12.0002 19.8355 11.8431 20 11.6492 20H9.35156C9.15772 20 8.99977 19.8355 8.99977 19.633V10.8716C8.99972 10.3901 8.62627 10.0002 8.16605 10H6.83462C6.61203 10.0016 6.39948 10.0946 6.24305 10.258C6.08663 10.4214 5.99885 10.6419 6.00011 10.8716V19.633C6.00011 19.8354 5.84291 19.9999 5.64911 20H0.350999C0.157312 19.9998 3.00746e-10 19.8354 3.00746e-10 19.633V10.367C-3.87155e-06 10.2704 0.0373774 10.1769 0.103328 10.1082C0.169158 10.0399 0.258398 10.001 0.351788 10H5.16639C5.38889 9.99835 5.60161 9.90537 5.75796 9.74202C5.91432 9.57861 6.00139 9.35805 6.00011 9.12842V0.367025C6.00011 0.270623 6.03704 0.177667 6.10265 0.109049C6.16843 0.0404047 6.25835 0.00109691 6.3519 0H8.64878Z" fill="black"/>
</g>
<defs>
<clipPath id="clip0_0_19">
<rect width="21" height="20" fill="white"/>
</clipPath>
</defs>
</svg>
